# xmcd CD database file
#
# Track frame offsets:
#	183
#	13200
#	25850
#	39330
#	53033
#	65715
#	78028
#	93253
#	106663
#	121060
#	134228
#	147625
#	161395
#	173893
#	188158
#	201363
#	214910
#	228505
#	241880
#	254750
#	267658
#	280193
#	293110
#	306105
#	319943
#	333813
#
# Disc length: 4645 seconds
#
# Revision: 6
# Processed by: cddbd v1.5.2PL0 Copyright (c) Steve Scherf et al.
# Submitted via: CDex 1.51
#
DISCID=8312231a
DTITLE=Memphis Slim - The Complete Recordings  {1940-1941}
DYEAR=1993
DGENRE=Blues
TTITLE0=Diggin' My Potatoes n°2
TTITLE1=The Jive Blues
TTITLE2=Last Pair Of Shoes Blues
TTITLE3=Miss Ora Lee Blues
TTITLE4=Blue Evening Blues
TTITLE5=Blues At Midnight
TTITLE6=Beer Drinking Woman
TTITLE7=You Didn't Mean Me No Good
TTITLE8=Grinder Man Blues
TTITLE9=Empty Room Blues
TTITLE10=Shelby County Blues
TTITLE11=I See My Great Mistake
TTITLE12=Old Taylor
TTITLE13=I Believe I'll Settle Down
TTITLE14=Jasper's Gal
TTITLE15=You Got To Help Me Some
TTITLE16=Two Of A Kind
TTITLE17=Whiskey Store Blues
TTITLE18=Maybe I'll Loan You A Dime
TTITLE19=Me, Myself, And I
TTITLE20=Whiskey And Gin Blues
TTITLE21=You Gonna Worry Too
TTITLE22=This Life I'm Living
TTITLE23=Caught The Old Coon At Last
TTITLE24=Don't Think That You're Smart
TTITLE25=Lend Me Your Love
EXTD=YEAR: 1993
EXTT0=
EXTT1=
EXTT2=
EXTT3=
EXTT4=
EXTT5=
EXTT6=
EXTT7=
EXTT8=
EXTT9=
EXTT10=
EXTT11=
EXTT12=
EXTT13=
EXTT14=
EXTT15=
EXTT16=
EXTT17=
EXTT18=
EXTT19=
EXTT20=
EXTT21=
EXTT22=
EXTT23=
EXTT24=
EXTT25=
PLAYORDER=
